# xmcd
#
# Track frame offsets:
#	150
#	21737
#	41487
#	61807
#	83762
#	102095
#	121370
#	140782
#	157097
#	175802
#	190187
#	210330
#	229650
#	245692
#	263420
#	283825
#
# Disc length: 4031 seconds
#
# Revision: 5
# Processed by: cddbd v1.5.2PL0 Copyright (c) Steve Scherf et al.
# Submitted via: audiograbber 1.83.01
#
DISCID=e10fbd10
DTITLE=Various Artist - The Players Club
DYEAR=1998
DGENRE=Soundtrack
TTITLE0=Ice Cube - We Be Clubbin
TTITLE1=Ice Cube, DMX - We Be Clubbin (Remix)
TTITLE2=Ice Cube, Mr. Short Khop - Who Are You Lovin
TTITLE3=Changing Faces - Same Tempo
TTITLE4=Kurupt - Under Pressure
TTITLE5=Master P, Ice Cube - You Know I'm A Ho
TTITLE6=Pressha - Splackavellie
TTITLE7=Mack 10, Scarface - Your Delinquent
TTITLE8=Jay-Z, Memphis Bleek, Sauce Money - From Marcey To Hollywood
TTITLE9=Brownstone - Don't Play Me Wrong
TTITLE10=Mia X - Shake Whatcha Mama Gave Ya (But Make Sho Your Niggas Pay Ya)
TTITLE11=Public Announcement - What A Woman Feels
TTITLE12=Rufus Blaq, Spindarella - Don't Worry (My Shorty)
TTITLE13=Ice Cube, Mr. Short Khop - My Loved One
TTITLE14=Mr. Dalvin - Get Mine
TTITLE15=Emmage, Mr. Short Khop, Lil' Mo - Dreamin
EXTD=www.RapMusicGuide.com\n
EXTT0=
EXTT1=
EXTT2=
EXTT3=
EXTT4=
EXTT5=
EXTT6=
EXTT7=
EXTT8=
EXTT9=
EXTT10=
EXTT11=
EXTT12=
EXTT13=
EXTT14=
EXTT15=
PLAYORDER=
